# xmcd
#
# Track frame offsets:
#	150
#	22157
#	47065
#	75227
#	90220
#	107300
#	135577
#	160000
#	176620
#	196525
#
# Disc length: 2861 seconds
#
# Revision: 1
# Processed by: cddbd v1.5.2PL0 Copyright (c) Steve Scherf et al.
# Submitted via: dBpowerAMP V4.0
#
DISCID=630b2b0a
DTITLE=Various Artist - Forever Soul 
DYEAR=1999
DGENRE=R and B
TTITLE0=Let's Get It On - Marvin Gaye
TTITLE1=Secret Lovers - Atlantic Starr
TTITLE2=Sweet Sticky Thing - Ohio Players, The
TTITLE3=Sweet Thing - Rufus featuring Chaka Khan
TTITLE4=Still - Commodores
TTITLE5=Outstanding - Gap Band, The
TTITLE6=Lady You Are - One Way
TTITLE7=With You I'm Born Again - Billy Preston and Syreeta
TTITLE8=Joanna - Kool and The Gang
TTITLE9=I Believe In You and Me - Four Tops, The
EXTD=
EXTT0=
EXTT1=
EXTT2=
EXTT3=
EXTT4=
EXTT5=
EXTT6=
EXTT7=
EXTT8=
EXTT9=
PLAYORDER=
